<?xml version="1.0" encoding="UTF-8"?>
<svg xmlns="http://www.w3.org/2000/svg" width="128" height="128" viewBox="0 0 128 128" role="img" aria-label="PayShap">
  <defs>
    <linearGradient id="g" x1="0" y1="0" x2="1" y2="1">
      <stop offset="0" stop-color="#0ea5e9"/>
      <stop offset="1" stop-color="#2563eb"/>
    </linearGradient>
  </defs>
  <rect x="10" y="10" width="108" height="108" rx="28" fill="url(#g)"/>
  <!-- Generic "S" mark (not an official logo). -->
  <path
    d="M42 54c0-10 8-18 18-18h10c7 0 12 5 12 12 0 7-5 12-12 12H62c-4 0-6 2-6 5s2 5 6 5h10c10 0 18 8 18 18s-8 18-18 18H60c-7 0-12-5-12-12 0-7 5-12 12-12h10c4 0 6-2 6-5s-2-5-6-5H60c-10 0-18-8-18-18z"
    fill="#ffffff"
    opacity="0.95"
  />
</svg>

